<svg xmlns="http://www.w3.org/2000/svg" xmlns:xlink="http://www.w3.org/1999/xlink" width="500" zoomAndPan="magnify" viewBox="0 0 375 374.999991" height="500" preserveAspectRatio="xMidYMid meet" version="1.0"><defs><clipPath id="6c1590286c"><path d="M 32 237 L 343 237 L 343 362.949219 L 32 362.949219 Z M 32 237 " clip-rule="nonzero"/></clipPath><clipPath id="ddd7de9b1a"><path d="M 18.75 211 L 356.25 211 L 356.25 246 L 18.75 246 Z M 18.75 211 " clip-rule="nonzero"/></clipPath></defs><rect x="-37.5" width="450" fill="#ffffff" y="-37.499999" height="449.999989" fill-opacity="1"/><rect x="-37.5" width="450" fill="#ffffff" y="-37.499999" height="449.999989" fill-opacity="1"/><g clip-path="url(#6c1590286c)"><path fill="#000000" d="M 338.304688 362.984375 L 36.695312 362.984375 C 34.460938 362.984375 32.707031 361.226562 32.707031 358.996094 L 32.707031 241.765625 C 32.707031 239.53125 34.460938 237.777344 36.695312 237.777344 C 38.925781 237.777344 40.679688 239.53125 40.679688 241.765625 L 40.679688 354.929688 L 334.320312 354.929688 L 334.320312 241.765625 C 334.320312 239.53125 336.074219 237.777344 338.304688 237.777344 C 340.539062 237.777344 342.292969 239.53125 342.292969 241.765625 L 342.292969 358.914062 C 342.292969 361.148438 340.460938 362.984375 338.304688 362.984375 Z M 338.304688 362.984375 " fill-opacity="1" fill-rule="nonzero"/></g><path fill="#000000" d="M 344.367188 106.589844 L 30.554688 106.589844 C 28.320312 106.589844 26.566406 104.832031 26.566406 102.601562 C 26.566406 77.957031 43.632812 54.992188 74.574219 37.84375 C 104.800781 21.175781 144.832031 12.003906 187.421875 12.003906 C 230.007812 12.003906 270.039062 21.175781 300.265625 37.84375 C 331.207031 54.910156 348.273438 77.878906 348.273438 102.601562 C 348.355469 104.753906 346.601562 106.589844 344.367188 106.589844 Z M 34.78125 98.613281 L 340.21875 98.613281 C 338.386719 78.515625 323.074219 59.535156 296.515625 44.863281 C 267.488281 28.832031 228.730469 19.980469 187.5 19.980469 C 146.269531 19.980469 107.511719 28.832031 78.480469 44.863281 C 51.925781 59.535156 36.535156 78.4375 34.78125 98.613281 Z M 34.78125 98.613281 " fill-opacity="1" fill-rule="nonzero"/><path fill="#000000" d="M 286.070312 106.589844 C 283.835938 106.589844 282.082031 104.832031 282.082031 102.601562 C 282.082031 57.0625 239.65625 19.980469 187.5 19.980469 C 135.34375 19.980469 92.835938 57.0625 92.835938 102.601562 C 92.835938 104.832031 91.082031 106.589844 88.851562 106.589844 C 86.617188 106.589844 84.863281 104.832031 84.863281 102.601562 C 84.863281 52.675781 130.878906 12.003906 187.421875 12.003906 C 243.960938 12.003906 289.976562 52.675781 289.976562 102.601562 C 290.058594 104.753906 288.222656 106.589844 286.070312 106.589844 Z M 286.070312 106.589844 " fill-opacity="1" fill-rule="nonzero"/><path fill="#000000" d="M 217.328125 106.589844 C 215.09375 106.589844 213.339844 104.832031 213.339844 102.601562 C 213.339844 53.953125 199.703125 19.980469 187.421875 19.980469 C 175.140625 19.980469 161.5 53.875 161.5 102.601562 C 161.5 104.832031 159.746094 106.589844 157.515625 106.589844 C 155.28125 106.589844 153.527344 104.832031 153.527344 102.601562 C 153.527344 58.660156 165.410156 12.003906 187.421875 12.003906 C 209.429688 12.003906 221.3125 58.660156 221.3125 102.601562 C 221.3125 104.753906 219.558594 106.589844 217.328125 106.589844 Z M 217.328125 106.589844 " fill-opacity="1" fill-rule="nonzero"/><path fill="#000000" d="M 52.960938 128.996094 C 38.367188 128.996094 26.566406 117.117188 26.566406 102.601562 C 26.566406 100.367188 28.320312 98.613281 30.554688 98.613281 L 75.371094 98.613281 C 77.605469 98.613281 79.359375 100.367188 79.359375 102.601562 C 79.359375 117.117188 67.558594 128.996094 52.960938 128.996094 Z M 35.019531 106.589844 C 36.851562 114.800781 44.191406 121.023438 53.042969 121.023438 C 61.894531 121.023438 69.230469 114.800781 71.066406 106.589844 Z M 35.019531 106.589844 " fill-opacity="1" fill-rule="nonzero"/><path fill="#000000" d="M 97.78125 128.996094 C 83.1875 128.996094 71.382812 117.117188 71.382812 102.601562 C 71.382812 100.367188 73.140625 98.613281 75.371094 98.613281 L 120.191406 98.613281 C 122.425781 98.613281 124.179688 100.367188 124.179688 102.601562 C 124.179688 117.117188 112.375 128.996094 97.78125 128.996094 Z M 79.839844 106.589844 C 81.671875 114.800781 89.007812 121.023438 97.863281 121.023438 C 106.714844 121.023438 114.050781 114.800781 115.886719 106.589844 Z M 79.839844 106.589844 " fill-opacity="1" fill-rule="nonzero"/><path fill="#000000" d="M 142.679688 128.996094 C 128.085938 128.996094 116.285156 117.117188 116.285156 102.601562 C 116.285156 100.367188 118.039062 98.613281 120.269531 98.613281 L 165.089844 98.613281 C 167.324219 98.613281 169.078125 100.367188 169.078125 102.601562 C 169.078125 117.117188 157.195312 128.996094 142.679688 128.996094 Z M 124.65625 106.589844 C 126.492188 114.800781 133.828125 121.023438 142.679688 121.023438 C 151.53125 121.023438 158.871094 114.800781 160.703125 106.589844 Z M 124.65625 106.589844 " fill-opacity="1" fill-rule="nonzero"/><path fill="#000000" d="M 187.5 128.996094 C 172.90625 128.996094 161.101562 117.117188 161.101562 102.601562 C 161.101562 100.367188 162.855469 98.613281 165.089844 98.613281 L 209.910156 98.613281 C 212.144531 98.613281 213.898438 100.367188 213.898438 102.601562 C 213.898438 117.117188 202.015625 128.996094 187.5 128.996094 Z M 169.476562 106.589844 C 171.3125 114.800781 178.648438 121.023438 187.5 121.023438 C 196.351562 121.023438 203.6875 114.800781 205.523438 106.589844 Z M 169.476562 106.589844 " fill-opacity="1" fill-rule="nonzero"/><path fill="#000000" d="M 232.320312 128.996094 C 217.726562 128.996094 205.921875 117.117188 205.921875 102.601562 C 205.921875 100.367188 207.675781 98.613281 209.910156 98.613281 L 254.730469 98.613281 C 256.960938 98.613281 258.714844 100.367188 258.714844 102.601562 C 258.714844 117.117188 246.832031 128.996094 232.320312 128.996094 Z M 214.296875 106.589844 C 216.128906 114.800781 223.46875 121.023438 232.320312 121.023438 C 241.171875 121.023438 248.507812 114.800781 250.34375 106.589844 Z M 214.296875 106.589844 " fill-opacity="1" fill-rule="nonzero"/><path fill="#000000" d="M 277.136719 128.996094 C 262.542969 128.996094 250.742188 117.117188 250.742188 102.601562 C 250.742188 100.367188 252.496094 98.613281 254.730469 98.613281 L 299.546875 98.613281 C 301.78125 98.613281 303.535156 100.367188 303.535156 102.601562 C 303.535156 117.117188 291.652344 128.996094 277.136719 128.996094 Z M 259.113281 106.589844 C 260.949219 114.800781 268.285156 121.023438 277.136719 121.023438 C 285.992188 121.023438 293.328125 114.800781 295.160156 106.589844 Z M 259.113281 106.589844 " fill-opacity="1" fill-rule="nonzero"/><path fill="#000000" d="M 321.957031 128.996094 C 307.363281 128.996094 295.5625 117.117188 295.5625 102.601562 C 295.5625 100.367188 297.316406 98.613281 299.546875 98.613281 L 344.367188 98.613281 C 346.601562 98.613281 348.355469 100.367188 348.355469 102.601562 C 348.355469 117.117188 336.472656 128.996094 321.957031 128.996094 Z M 303.933594 106.589844 C 305.769531 114.800781 313.105469 121.023438 321.957031 121.023438 C 330.808594 121.023438 338.148438 114.800781 339.980469 106.589844 Z M 303.933594 106.589844 " fill-opacity="1" fill-rule="nonzero"/><path fill="#000000" d="M 74.8125 219.355469 C 72.582031 219.355469 70.828125 217.601562 70.828125 215.367188 L 70.828125 107.625 C 70.828125 105.390625 72.582031 103.636719 74.8125 103.636719 C 77.046875 103.636719 78.800781 105.390625 78.800781 107.625 L 78.800781 215.367188 C 78.800781 217.601562 77.046875 219.355469 74.8125 219.355469 Z M 51.046875 219.355469 C 48.816406 219.355469 47.0625 217.601562 47.0625 215.367188 L 47.0625 124.929688 C 47.0625 122.699219 48.816406 120.941406 51.046875 120.941406 C 53.28125 120.941406 55.035156 122.699219 55.035156 124.929688 L 55.035156 215.367188 C 55.035156 217.601562 53.28125 219.355469 51.046875 219.355469 Z M 51.046875 219.355469 " fill-opacity="1" fill-rule="nonzero"/><path fill="#000000" d="M 323.871094 219.355469 C 321.636719 219.355469 319.882812 217.601562 319.882812 215.367188 L 319.882812 124.929688 C 319.882812 122.699219 321.636719 120.941406 323.871094 120.941406 C 326.105469 120.941406 327.859375 122.699219 327.859375 124.929688 L 327.859375 215.367188 C 327.859375 217.601562 326.105469 219.355469 323.871094 219.355469 Z M 300.105469 219.355469 C 297.875 219.355469 296.117188 217.601562 296.117188 215.367188 L 296.117188 107.625 C 296.117188 105.390625 297.875 103.636719 300.105469 103.636719 C 302.339844 103.636719 304.09375 105.390625 304.09375 107.625 L 304.09375 215.367188 C 304.09375 217.601562 302.339844 219.355469 300.105469 219.355469 Z M 300.105469 219.355469 " fill-opacity="1" fill-rule="nonzero"/><path fill="#41495c" d="M 170.992188 202.207031 L 104.003906 202.207031 C 97.304688 202.207031 91.800781 196.785156 91.800781 190.007812 C 91.800781 183.226562 97.222656 177.804688 104.003906 177.804688 L 170.992188 177.804688 C 177.691406 177.804688 183.195312 183.226562 183.195312 190.007812 C 183.113281 196.785156 177.691406 202.207031 170.992188 202.207031 Z M 103.921875 185.859375 C 101.609375 185.859375 99.695312 187.773438 99.695312 190.085938 C 99.695312 192.398438 101.609375 194.3125 103.921875 194.3125 L 170.910156 194.3125 C 173.226562 194.3125 175.140625 192.398438 175.140625 190.085938 C 175.140625 187.773438 173.226562 185.859375 170.910156 185.859375 Z M 103.921875 185.859375 " fill-opacity="1" fill-rule="nonzero"/><path fill="#41495c" d="M 160.386719 219.355469 C 158.152344 219.355469 156.398438 217.601562 156.398438 215.367188 C 156.398438 213.132812 158.152344 211.378906 160.386719 211.378906 C 162.9375 211.378906 164.929688 209.304688 164.929688 206.832031 L 164.929688 198.300781 C 164.929688 196.066406 166.683594 194.3125 168.917969 194.3125 C 171.152344 194.3125 172.90625 196.066406 172.90625 198.300781 L 172.90625 206.832031 C 172.90625 213.773438 167.324219 219.355469 160.386719 219.355469 Z M 114.527344 219.355469 C 107.589844 219.355469 102.007812 213.691406 102.007812 206.832031 L 102.007812 198.300781 C 102.007812 196.066406 103.761719 194.3125 105.996094 194.3125 C 108.230469 194.3125 109.984375 196.066406 109.984375 198.300781 L 109.984375 206.832031 C 109.984375 209.386719 112.058594 211.378906 114.527344 211.378906 C 116.761719 211.378906 118.515625 213.132812 118.515625 215.367188 C 118.515625 217.601562 116.761719 219.355469 114.527344 219.355469 Z M 114.527344 219.355469 " fill-opacity="1" fill-rule="nonzero"/><path fill="#41495c" d="M 165.808594 185.859375 C 163.574219 185.859375 161.820312 184.105469 161.820312 181.871094 C 161.820312 170.148438 150.894531 160.578125 137.496094 160.578125 C 124.097656 160.578125 113.171875 170.148438 113.171875 181.871094 C 113.171875 184.105469 111.417969 185.859375 109.1875 185.859375 C 106.953125 185.859375 105.199219 184.105469 105.199219 181.871094 C 105.199219 165.761719 119.710938 152.605469 137.496094 152.605469 C 155.28125 152.605469 169.796875 165.761719 169.796875 181.871094 C 169.796875 184.105469 167.960938 185.859375 165.808594 185.859375 Z M 165.808594 185.859375 " fill-opacity="1" fill-rule="nonzero"/><path fill="#41495c" d="M 270.996094 202.207031 L 204.007812 202.207031 C 197.308594 202.207031 191.804688 196.785156 191.804688 190.007812 C 191.804688 183.226562 197.230469 177.804688 204.007812 177.804688 L 270.996094 177.804688 C 277.695312 177.804688 283.199219 183.226562 283.199219 190.007812 C 283.121094 196.785156 277.695312 202.207031 270.996094 202.207031 Z M 203.929688 185.859375 C 201.617188 185.859375 199.703125 187.773438 199.703125 190.085938 C 199.703125 192.398438 201.617188 194.3125 203.929688 194.3125 L 270.917969 194.3125 C 273.230469 194.3125 275.144531 192.398438 275.144531 190.085938 C 275.144531 187.773438 273.230469 185.859375 270.917969 185.859375 Z M 203.929688 185.859375 " fill-opacity="1" fill-rule="nonzero"/><path fill="#41495c" d="M 159.90625 315.613281 L 81.195312 315.613281 C 73.699219 315.613281 67.558594 309.550781 67.558594 301.972656 C 67.558594 294.398438 73.699219 288.335938 81.195312 288.335938 L 159.90625 288.335938 C 167.402344 288.335938 173.542969 294.398438 173.542969 301.972656 C 173.542969 309.550781 167.402344 315.613281 159.90625 315.613281 Z M 81.195312 296.390625 C 78.082031 296.390625 75.53125 298.945312 75.53125 302.054688 C 75.53125 305.164062 78.082031 307.714844 81.195312 307.714844 L 159.90625 307.714844 C 163.015625 307.714844 165.570312 305.164062 165.570312 302.054688 C 165.570312 298.945312 163.015625 296.390625 159.90625 296.390625 Z M 81.195312 296.390625 " fill-opacity="1" fill-rule="nonzero"/><path fill="#41495c" d="M 144.355469 342.007812 L 96.746094 342.007812 C 87.253906 342.007812 79.597656 334.273438 79.597656 324.863281 L 79.597656 311.703125 C 79.597656 309.472656 81.351562 307.714844 83.585938 307.714844 C 85.820312 307.714844 87.574219 309.472656 87.574219 311.703125 L 87.574219 324.863281 C 87.574219 329.964844 91.722656 334.035156 96.746094 334.035156 L 144.355469 334.035156 C 149.460938 334.035156 153.527344 329.886719 153.527344 324.863281 L 153.527344 311.703125 C 153.527344 309.472656 155.28125 307.714844 157.515625 307.714844 C 159.746094 307.714844 161.5 309.472656 161.5 311.703125 L 161.5 324.863281 C 161.5 334.351562 153.765625 342.007812 144.355469 342.007812 Z M 144.355469 342.007812 " fill-opacity="1" fill-rule="nonzero"/><path fill="#41495c" d="M 153.765625 296.390625 C 151.53125 296.390625 149.777344 294.636719 149.777344 292.40625 C 149.777344 278.210938 136.621094 266.726562 120.511719 266.726562 C 104.402344 266.726562 91.242188 278.289062 91.242188 292.40625 C 91.242188 294.636719 89.488281 296.390625 87.253906 296.390625 C 85.023438 296.390625 83.265625 294.636719 83.265625 292.40625 C 83.265625 273.824219 99.933594 258.75 120.511719 258.75 C 141.085938 258.75 157.753906 273.824219 157.753906 292.40625 C 157.753906 294.636719 156 296.390625 153.765625 296.390625 Z M 153.765625 296.390625 " fill-opacity="1" fill-rule="nonzero"/><path fill="#41495c" d="M 293.804688 315.613281 L 215.09375 315.613281 C 207.597656 315.613281 201.457031 309.550781 201.457031 301.972656 C 201.457031 294.398438 207.515625 288.335938 215.09375 288.335938 L 293.804688 288.335938 C 301.300781 288.335938 307.441406 294.398438 307.441406 301.972656 C 307.441406 309.550781 301.300781 315.613281 293.804688 315.613281 Z M 215.011719 296.390625 C 211.902344 296.390625 209.351562 298.945312 209.351562 302.054688 C 209.351562 305.164062 211.902344 307.714844 215.011719 307.714844 L 293.726562 307.714844 C 296.835938 307.714844 299.386719 305.164062 299.386719 302.054688 C 299.386719 298.945312 296.835938 296.390625 293.726562 296.390625 Z M 215.011719 296.390625 " fill-opacity="1" fill-rule="nonzero"/><path fill="#41495c" d="M 278.175781 342.007812 L 230.566406 342.007812 C 221.074219 342.007812 213.417969 334.273438 213.417969 324.863281 L 213.417969 311.703125 C 213.417969 309.472656 215.171875 307.714844 217.40625 307.714844 C 219.640625 307.714844 221.394531 309.472656 221.394531 311.703125 L 221.394531 324.863281 C 221.394531 329.964844 225.539062 334.035156 230.566406 334.035156 L 278.175781 334.035156 C 283.277344 334.035156 287.347656 329.886719 287.347656 324.863281 L 287.347656 311.703125 C 287.347656 309.472656 289.101562 307.714844 291.332031 307.714844 C 293.566406 307.714844 295.320312 309.472656 295.320312 311.703125 L 295.320312 324.863281 C 295.402344 334.351562 287.664062 342.007812 278.175781 342.007812 Z M 278.175781 342.007812 " fill-opacity="1" fill-rule="nonzero"/><path fill="#41495c" d="M 287.664062 296.390625 C 285.433594 296.390625 283.679688 294.636719 283.679688 292.40625 C 283.679688 278.210938 270.519531 266.726562 254.410156 266.726562 C 238.300781 266.726562 225.140625 278.289062 225.140625 292.40625 C 225.140625 294.636719 223.386719 296.390625 221.152344 296.390625 C 218.921875 296.390625 217.167969 294.636719 217.167969 292.40625 C 217.167969 273.824219 233.835938 258.75 254.410156 258.75 C 274.984375 258.75 291.652344 273.824219 291.652344 292.40625 C 291.652344 294.636719 289.898438 296.390625 287.664062 296.390625 Z M 287.664062 296.390625 " fill-opacity="1" fill-rule="nonzero"/><path fill="#41495c" d="M 260.390625 219.355469 C 258.15625 219.355469 256.402344 217.601562 256.402344 215.367188 C 256.402344 213.132812 258.15625 211.378906 260.390625 211.378906 C 262.941406 211.378906 264.9375 209.304688 264.9375 206.832031 L 264.9375 198.300781 C 264.9375 196.066406 266.691406 194.3125 268.925781 194.3125 C 271.15625 194.3125 272.910156 196.066406 272.910156 198.300781 L 272.910156 206.832031 C 272.910156 213.773438 267.328125 219.355469 260.390625 219.355469 Z M 214.535156 219.355469 C 207.597656 219.355469 202.015625 213.691406 202.015625 206.832031 L 202.015625 198.300781 C 202.015625 196.066406 203.769531 194.3125 206 194.3125 C 208.234375 194.3125 209.988281 196.066406 209.988281 198.300781 L 209.988281 206.832031 C 209.988281 209.386719 212.0625 211.378906 214.535156 211.378906 C 216.769531 211.378906 218.523438 213.132812 218.523438 215.367188 C 218.523438 217.601562 216.769531 219.355469 214.535156 219.355469 Z M 214.535156 219.355469 " fill-opacity="1" fill-rule="nonzero"/><path fill="#41495c" d="M 265.8125 185.859375 C 263.582031 185.859375 261.828125 184.105469 261.828125 181.871094 C 261.828125 170.148438 250.902344 160.578125 237.503906 160.578125 C 224.105469 160.578125 213.179688 170.148438 213.179688 181.871094 C 213.179688 184.105469 211.425781 185.859375 209.191406 185.859375 C 206.957031 185.859375 205.203125 184.105469 205.203125 181.871094 C 205.203125 165.761719 219.71875 152.605469 237.503906 152.605469 C 255.285156 152.605469 269.800781 165.761719 269.800781 181.871094 C 269.800781 184.105469 267.96875 185.859375 265.8125 185.859375 Z M 265.8125 185.859375 " fill-opacity="1" fill-rule="nonzero"/><g clip-path="url(#ddd7de9b1a)"><path fill="#000000" d="M 352.261719 245.75 L 22.738281 245.75 C 20.503906 245.75 18.75 243.996094 18.75 241.765625 L 18.75 215.367188 C 18.75 213.132812 20.503906 211.378906 22.738281 211.378906 L 352.261719 211.378906 C 354.496094 211.378906 356.25 213.132812 356.25 215.367188 L 356.25 241.765625 C 356.25 243.996094 354.414062 245.75 352.261719 245.75 Z M 26.726562 237.777344 L 348.273438 237.777344 L 348.273438 219.355469 L 26.726562 219.355469 Z M 26.726562 237.777344 " fill-opacity="1" fill-rule="nonzero"/></g></svg>