<svg xmlns="http://www.w3.org/2000/svg" xmlns:xlink="http://www.w3.org/1999/xlink" width="500" zoomAndPan="magnify" viewBox="0 0 375 374.999991" height="500" preserveAspectRatio="xMidYMid meet" version="1.0"><defs><clipPath id="e55e23a6b0"><path d="M 37.5 18.75 L 318.75 18.75 L 318.75 356.25 L 37.5 356.25 Z M 37.5 18.75 " clip-rule="nonzero"/></clipPath></defs><g clip-path="url(#e55e23a6b0)"><path fill="#000000" d="M 276.617188 300 C 261.070312 300 248.492188 312.605469 248.492188 328.125 C 248.492188 343.644531 261.070312 356.25 276.617188 356.25 C 292.136719 356.25 304.742188 343.644531 304.742188 328.125 C 304.742188 312.605469 292.136719 300 276.617188 300 Z M 157.085938 300 C 141.539062 300 128.960938 312.605469 128.960938 328.125 C 128.960938 343.644531 141.539062 356.25 157.085938 356.25 C 172.605469 356.25 185.210938 343.644531 185.210938 328.125 C 185.210938 312.605469 172.605469 300 157.085938 300 Z M 276.617188 320.957031 C 280.488281 320.957031 283.648438 324.140625 283.648438 328.070312 C 283.648438 331.996094 280.488281 335.15625 276.617188 335.15625 C 272.71875 335.15625 269.585938 331.996094 269.585938 328.070312 C 269.585938 324.140625 272.71875 320.957031 276.617188 320.957031 Z M 157.085938 320.902344 C 160.957031 320.902344 164.117188 324.085938 164.117188 328.015625 C 164.117188 331.96875 160.957031 335.15625 157.085938 335.15625 C 153.1875 335.15625 150.054688 331.96875 150.054688 328.015625 C 150.054688 324.085938 153.1875 320.902344 157.085938 320.902344 Z M 131.460938 250.78125 L 287.382812 250.78125 C 290.816406 250.78125 293.757812 248.308594 294.332031 244.902344 L 311.664062 139.433594 C 311.992188 137.375 311.417969 135.316406 310.097656 133.722656 C 308.753906 132.183594 306.800781 131.25 304.742188 131.25 L 109.84375 131.25 L 103.28125 94.859375 C 102.675781 91.507812 99.765625 89.0625 96.359375 89.0625 L 44.585938 89.0625 C 40.6875 89.0625 37.554688 92.222656 37.554688 96.09375 C 37.554688 99.992188 40.6875 103.125 44.585938 103.125 L 90.480469 103.125 L 125.007812 294.230469 C 125.609375 297.582031 128.523438 300 131.925781 300 L 311.773438 300 C 315.644531 300 318.804688 296.867188 318.804688 292.96875 C 318.804688 289.097656 315.644531 285.9375 311.773438 285.9375 L 137.804688 285.9375 Z M 158.898438 236.71875 L 156.976562 215.40625 L 125.0625 215.40625 L 128.90625 236.71875 Z M 171.09375 215.40625 L 173.015625 236.71875 L 199.273438 236.71875 L 199.273438 215.40625 Z M 213.335938 215.40625 L 213.335938 236.71875 L 239.566406 236.71875 L 241.488281 215.40625 Z M 284.910156 215.40625 L 255.605469 215.40625 L 253.683594 236.71875 L 281.425781 236.71875 Z M 122.507812 201.34375 L 155.710938 201.34375 L 153.816406 180.46875 L 118.742188 180.46875 Z M 290.679688 180.46875 L 258.765625 180.46875 L 256.871094 201.34375 L 287.246094 201.34375 Z M 167.933594 180.46875 L 169.832031 201.34375 L 199.273438 201.34375 L 199.273438 180.46875 Z M 213.335938 201.34375 L 242.753906 201.34375 L 244.648438 180.46875 L 213.335938 180.46875 Z M 152.554688 166.40625 L 150.660156 145.3125 L 112.371094 145.3125 L 116.191406 166.40625 Z M 261.921875 145.3125 L 260.027344 166.40625 L 292.988281 166.40625 L 296.449219 145.3125 Z M 213.335938 145.3125 L 213.335938 166.40625 L 245.910156 166.40625 L 247.804688 145.3125 Z M 164.777344 145.3125 L 166.671875 166.40625 L 199.273438 166.40625 L 199.273438 145.3125 Z M 304.742188 25.78125 C 304.742188 21.910156 301.582031 18.75 297.710938 18.75 L 241.460938 18.75 C 237.5625 18.75 234.429688 21.910156 234.429688 25.78125 L 234.429688 117.1875 C 234.429688 121.085938 237.5625 124.21875 241.460938 124.21875 L 297.710938 124.21875 C 301.582031 124.21875 304.742188 121.085938 304.742188 117.1875 Z M 150.054688 103.125 L 150.054688 110.15625 L 143.023438 110.15625 C 139.125 110.15625 135.992188 113.316406 135.992188 117.1875 C 135.992188 121.085938 139.125 124.21875 143.023438 124.21875 L 199.273438 124.21875 C 203.144531 124.21875 206.304688 121.085938 206.304688 117.1875 C 206.304688 113.316406 203.144531 110.15625 199.273438 110.15625 L 192.242188 110.15625 L 192.242188 103.125 L 220.367188 103.125 C 224.238281 103.125 227.398438 99.992188 227.398438 96.09375 L 227.398438 25.78125 C 227.398438 21.910156 224.238281 18.75 220.367188 18.75 L 121.65625 18.75 C 117.753906 18.75 114.625 21.910156 114.625 25.78125 L 114.625 96.09375 C 114.625 99.992188 117.753906 103.125 121.65625 103.125 Z M 178.179688 103.125 L 164.117188 103.125 L 164.117188 110.15625 L 178.179688 110.15625 Z M 290.679688 32.8125 L 290.679688 110.15625 L 248.492188 110.15625 L 248.492188 32.8125 Z M 269.640625 82.03125 C 273.484375 82.03125 276.617188 85.191406 276.617188 89.0625 C 276.617188 92.960938 273.484375 96.09375 269.640625 96.09375 C 265.796875 96.09375 262.691406 92.960938 262.691406 89.0625 C 262.691406 85.191406 265.796875 82.03125 269.640625 82.03125 Z M 128.6875 89.0625 L 213.335938 89.0625 L 213.335938 32.8125 L 128.6875 32.8125 Z M 206.304688 46.875 C 206.304688 43.003906 203.144531 39.84375 199.273438 39.84375 L 143.023438 39.84375 C 139.125 39.84375 135.992188 43.003906 135.992188 46.875 L 135.992188 75 C 135.992188 78.898438 139.125 82.03125 143.023438 82.03125 L 199.273438 82.03125 C 203.144531 82.03125 206.304688 78.898438 206.304688 75 Z M 262.554688 53.90625 L 276.617188 53.90625 C 280.488281 53.90625 283.648438 50.773438 283.648438 46.875 C 283.648438 43.003906 280.488281 39.84375 276.617188 39.84375 L 262.554688 39.84375 C 258.65625 39.84375 255.523438 43.003906 255.523438 46.875 C 255.523438 50.773438 258.65625 53.90625 262.554688 53.90625 " fill-opacity="1" fill-rule="evenodd"/></g></svg>